<svg xmlns="http://www.w3.org/2000/svg" version="1.1" xmlns:xlink="http://www.w3.org/1999/xlink" xmlns:svgjs="http://svgjs.dev/svgjs" viewBox="0 0 800 400"><path d="M44.6236457824707,335.48388671875C59.50267831802368,280.1926643753052,95.16128145217895,66.68907180786132,117.20429229736328,65.7706069946289C139.2473031425476,64.85214218139649,127.53583393096923,298.49012981414796,152.15052795410156,331.0035705566406C176.7652219772339,363.5170112991333,215.04927024841308,221.61737503051756,237.27597045898438,224.3727569580078C259.50267066955564,227.12813888549806,236.32614364624024,331.58603507995605,260.5734558105469,344.4444580078125C284.82076797485354,357.30288093566895,326.53224533081055,284.34139556884764,355.5555419921875,287.0967712402344C384.57883865356445,289.8521469116211,385.9856358337402,404.3593280982971,402.1505126953125,357.88531494140625C418.3153895568848,311.4113017845154,430.18368423461914,60.39426803588867,434.4085998535156,60.39426803588867C438.6335154724121,60.39426803588867,403.10483779907224,357.3342398071289,422.7598571777344,357.88531494140625C442.4148765563965,358.4363900756836,511.5501823425293,61.429214019775394,530.2867431640625,63.08243942260742C549.0233039855957,64.73566482543946,489.35933380126954,326.27240926742553,514.15771484375,365.9498291015625C538.9560958862305,405.62724893569947,612.3118127441406,257.91667083740236,651.2544555664062,256.6308288574219C690.1970983886719,255.3449868774414,693.2840151977539,338.5528761291504,704.121826171875,359.67742919921875" fill="none" stroke-width="27" stroke="url(&quot;#SvgjsLinearGradient1001&quot;)" stroke-linecap="round" stroke-dasharray="0 0" stroke-opacity="0.37"></path><defs><linearGradient id="SvgjsLinearGradient1001" gradientTransform="rotate(0, 0.5, 0.5)"><stop stop-color="hsl(184, 74%, 44%)" offset="0"></stop><stop stop-color="hsl(332, 87%, 70%)" offset="1"></stop></linearGradient></defs></svg>